<?xml version="1.0" encoding="utf-8"?>
<!-- Generator: Adobe Illustrator 27.0.0, SVG Export Plug-In . SVG Version: 6.00 Build 0)  -->
<svg version="1.1" id="Layer_1" xmlns="http://www.w3.org/2000/svg" xmlns:xlink="http://www.w3.org/1999/xlink" x="0px" y="0px"
	 viewBox="0 0 368.5 48" style="enable-background:new 0 0 368.5 48;" xml:space="preserve">
<style type="text/css">
	.st0{fill-rule:evenodd;clip-rule:evenodd;fill:#F1FF0A;}
	.st1{fill:#FFFFFF;}
</style>
<g>
	<g id="Camada_x0020_1">
		<path class="st0" d="M35.3,22.9l0-14c-2.5,0.9-5.4,2.6-7.8,3.7L3.7,24.4L3.6,38.3L35.3,22.9L35.3,22.9z"/>
		<path class="st0" d="M33.7,6.4L18.3,0L3.6,7.7l0,13.7C7.1,20.2,33.4,6.7,33.7,6.4z"/>
		<polygon class="st0" points="17.8,33.6 3.4,40.4 17.8,47.5 		"/>
	</g>
	<g>
		<path class="st1" d="M54,43.6H42.4V4.4h18.3c4.4,0,8,1.3,10.9,4c3,2.7,4.4,6,4.4,10.1s-1.5,7.4-4.4,10.1c-2.9,2.7-6.6,4-10.9,4H54
			V43.6z M54,15v7h6.7c1.8,0,3.3-1.5,3.3-3.5c0-2-1.5-3.5-3.3-3.5H54z"/>
		<path class="st1" d="M103.3,43.6l-2-5H87.8l-2,5H73.8l16-39.2h9.6l16,39.2H103.3z M94.6,21l-2.9,7.4h5.8L94.6,21z"/>
		<path class="st1" d="M149.6,4.4V15h-18.4v3.9h15v10.6h-15v14.1h-11.6V4.4H149.6z"/>
		<path class="st1" d="M153,15V4.4h32V15h-10.2v28.6h-11.6V15H153z"/>
		<path class="st1" d="M205.2,43.6V4.4h19.7c3.9,0,7.1,1.1,9.7,3.3c2.6,2.2,3.9,4.9,3.9,8.1c0,2.9-1.1,5.3-3.1,7.5
			c3,2.2,4.4,5.2,4.4,8.7c0,3.3-1.3,6-4,8.3c-2.6,2.2-5.9,3.3-9.8,3.3H205.2z M216.8,15v4h7.8c1,0,1.6-0.5,1.7-1.6
			c0.1-0.1,0.1-0.2,0.1-0.4c0-1.2-0.7-2-1.8-2H216.8z M216.8,28.5v4.4h8.9c2.5,0,2.5-4.4,0-4.4H216.8z"/>
		<path class="st1" d="M271,43.6l-2-5h-13.6l-2,5h-12.1l16-39.2h9.6l16,39.2H271z M262.3,21l-2.9,7.4h5.8L262.3,21z"/>
		<path class="st1" d="M287.3,43.6V4.4h10.4l14.7,19.4V4.4h11.1v39.2h-10.4l-14.7-19.3v19.3H287.3z"/>
		<path class="st1" d="M329.1,4.4h11.6v12.4l9.4-12.4h14.6l-14.4,19.1l15.5,20.1h-14.6L340.7,30v13.6h-11.6V4.4z"/>
	</g>
</g>
</svg>
